<svg width="55" height="60" viewBox="0 0 55 60" fill="none" xmlns="http://www.w3.org/2000/svg">
<path fill-rule="evenodd" clip-rule="evenodd" d="M25.8095 25.6996L26.5308 25.7704L26.542 25.7721C26.286 25.7333 26.0443 25.6968 25.8095 25.6996ZM25.4116 30.1193C24.9164 29.9121 24.511 29.2097 24.511 29.2097C24.511 29.2097 25.583 29.1964 27.4975 29.1964C29.4119 29.1964 30.4839 29.2097 30.4839 29.2097C30.4839 29.2097 30.0785 29.9121 29.5833 30.1193C29.0881 30.3264 28.1493 30.4958 27.4975 30.4958C26.8456 30.4958 25.9069 30.3264 25.4116 30.1193ZM10.2281 59.0828V48.1678V37.2527H27.4975H44.7668V48.1678V59.0828H27.4975H10.2281Z" fill="black"/>
<path fill-rule="evenodd" clip-rule="evenodd" d="M25.6503 0.863869C24.92 0.973799 23.7296 1.26097 23.0048 1.50162C22.2803 1.74253 20.958 2.41146 20.0667 2.98788C19.1755 3.5643 17.8269 4.67087 17.0699 5.44688C16.3126 6.22289 15.2393 7.52775 14.6844 8.34664C14.1292 9.16527 13.3176 10.5447 12.8809 11.4117C12.4441 12.2786 11.6684 14.1911 11.157 15.6613C10.6454 17.1317 9.99363 19.4813 9.70823 20.8825C9.3644 22.5718 9.19223 24.4245 9.19794 26.3785C9.20417 28.5584 9.32908 29.665 9.67759 30.6258C9.93676 31.3404 10.2227 32.1006 10.3128 32.315C10.4351 32.6061 9.95623 32.9512 8.42173 33.6773C7.15549 34.2766 5.76485 35.2077 4.79803 36.1033C3.93534 36.9027 2.87425 38.1779 2.44005 38.9373C2.00611 39.6967 1.41869 41.2258 1.13511 42.3353C0.699873 44.0383 0.619629 45.2171 0.619629 49.8986V55.4445H4.51185H8.40407L8.47211 45.504L8.54015 35.5635H13.2844H18.0284L17.3096 35.051C16.9141 34.7691 15.9216 33.9065 15.1041 33.1339C14.2865 32.361 13.3223 31.1362 12.9616 30.4116C12.5627 29.6109 12.3056 28.6517 12.3056 27.9656C12.3056 27.3351 12.5479 26.3536 12.8544 25.7426C13.1561 25.141 13.6438 24.3852 13.9383 24.0638C14.2328 23.7423 14.5514 23.479 14.6465 23.479C14.7415 23.479 14.9547 23.7768 15.1204 24.1409C15.2864 24.505 15.4219 25.1236 15.4219 25.5155C15.4219 25.9071 15.6299 26.6327 15.8844 27.1275C16.1387 27.6221 17.3506 29.3157 18.5777 30.8911C20.3173 33.1245 21.1161 33.9257 22.2053 34.5294C23.5808 35.2919 23.6611 35.3036 27.4975 35.3036C31.3354 35.3036 31.4133 35.2922 32.7923 34.5279C33.9043 33.9117 34.6914 33.1108 36.6232 30.6297C37.9601 28.9124 39.1611 27.1563 39.2918 26.7275C39.4224 26.2987 39.599 25.5297 39.6844 25.0186C39.7696 24.5074 39.9908 23.8816 40.176 23.6282C40.4822 23.2093 40.6047 23.301 41.5201 24.6311C42.3379 25.8193 42.548 26.3777 42.6363 27.5992C42.7251 28.8289 42.6264 29.3375 42.0956 30.3846C41.7386 31.0889 40.7619 32.3119 39.9254 33.1019C39.0889 33.892 38.0808 34.7691 37.6853 35.051L36.9665 35.5635H41.7105H46.4548L46.5228 45.504L46.5908 55.4445H50.4831H54.3753V49.8087C54.3753 45.5003 54.2766 43.7711 53.9561 42.467C53.7258 41.5288 53.1727 40.0595 52.7273 39.2019C52.2819 38.3442 51.3174 37.0487 50.5838 36.3229C49.8502 35.597 48.7377 34.7077 48.1121 34.3462C47.4863 33.985 46.4135 33.479 45.7282 33.222C44.7647 32.8605 44.5235 32.6606 44.6645 32.3399C44.7645 32.1118 45.0693 31.2947 45.3415 30.5239C45.71 29.481 45.8367 28.4142 45.8367 26.3531C45.8367 24.5812 45.6443 22.6386 45.3023 20.9592C45.0083 19.5156 44.3495 17.1317 43.8379 15.6613C43.3265 14.1911 42.5509 12.2786 42.1141 11.4117C41.6773 10.5447 40.8657 9.16527 40.3105 8.34664C39.7556 7.52775 38.6823 6.22289 37.925 5.44688C37.168 4.67087 35.8026 3.55338 34.8905 2.96345C33.9785 2.37352 32.4676 1.66872 31.5335 1.39715C30.5992 1.12557 29.1919 0.849576 28.4064 0.783826C27.6208 0.718076 26.3805 0.754199 25.6503 0.863869ZM19.5769 21.0608C19.5769 21.749 19.7748 22.228 20.2747 22.7501C20.9011 23.4044 21.1478 23.479 22.6849 23.479H24.3975L25.9398 21.9192L27.4824 20.3594L29.0551 21.9192L30.6278 23.479H32.3251C33.8458 23.479 34.0949 23.4031 34.7202 22.7501C35.2201 22.228 35.418 21.749 35.418 21.0608C35.418 20.5327 35.3969 20.1006 35.3969 20.1006C35.3969 20.1006 36.2547 20.3051 36.6938 20.5554C37.1911 20.8386 37.4929 21.2186 37.4939 21.5632C37.4947 21.8672 37.3332 22.2508 37.1348 22.4153C36.9366 22.5801 36.6912 23.3839 36.59 24.2015C36.4357 25.4445 36.1877 25.9739 35.0773 27.4331C34.2494 28.5211 33.73 29.5363 33.73 29.5363C33.73 29.5363 33.4703 28.4284 33.3444 28.0789C33.2361 27.7787 33.1673 27.2761 32.9553 26.8663C32.7232 26.4165 32.2339 26.0175 31.7218 25.8598C31.3468 25.7443 30.9744 25.7046 29.4451 25.6996C28.9257 25.7195 28.06 25.8598 27.4408 25.8598C27.1193 25.8598 26.8242 25.815 26.5459 25.7727L26.542 25.7721L26.5308 25.7704L25.8095 25.6996C23.8618 25.6996 23.1296 25.7828 22.5171 26.3959C22.0214 26.892 21.7672 27.4677 21.6672 28.3201L21.5246 29.5363L20.0605 27.6122C18.8441 26.0139 18.5636 25.4458 18.405 24.2587C18.3 23.4725 18.0531 22.5985 17.8568 22.3166C17.6602 22.0349 17.4994 21.6175 17.4994 21.3893C17.4994 21.1611 17.8794 20.7853 18.3434 20.5541C18.8075 20.323 19.5769 20.1122 19.5769 20.1122V21.0608ZM31.7177 29.6785C31.419 28.9591 30.9316 28.2154 30.6345 28.0254C30.3374 27.8354 29.3348 27.6213 28.4064 27.5495C27.478 27.4781 26.2509 27.5017 25.6796 27.6023C25.1083 27.7029 24.4827 27.8832 24.2893 28.003C24.0958 28.1231 23.7185 28.7037 23.451 29.2934C23.1832 29.8833 22.9617 30.5764 22.9586 30.8334C22.955 31.1341 23.3466 31.4797 24.0566 31.8022C24.8738 32.1734 25.7521 32.3051 27.4408 32.3093C28.9068 32.3129 30.0593 32.1739 30.667 31.9197C31.1871 31.7022 31.7584 31.4031 31.9366 31.2552C32.1919 31.0431 32.1454 30.7084 31.7177 29.6785Z" fill="black"/>
</svg>
