<svg width="54" height="52" viewBox="0 0 54 52" xmlns="http://www.w3.org/2000/svg">
<path d="M24.6854 2.58248C25.4854 0.472508 28.5127 0.472508 29.3152 2.58248L34.49 16.9173C34.6705 17.3842 34.9884 17.7855 35.4017 18.068C35.815 18.3505 36.3042 18.5011 36.8049 18.4997H49.5218C51.8717 18.4997 52.8967 21.4247 51.0492 22.8572L41.9996 30.9995C41.5943 31.3112 41.298 31.7432 41.1534 32.2337C41.0088 32.7241 41.0232 33.2478 41.1947 33.7295L44.4995 47.7368C45.3045 49.9868 42.6996 51.9192 40.7297 50.5343L28.4377 42.7344C28.0168 42.4385 27.5148 42.2798 27.0003 42.2798C26.4858 42.2798 25.9838 42.4385 25.5629 42.7344L13.2709 50.5343C11.3035 51.9192 8.69612 49.9843 9.50108 47.7368L12.8059 33.7295C12.9774 33.2478 12.9918 32.7241 12.8472 32.2337C12.7026 31.7432 12.4063 31.3112 12.001 30.9995L2.95137 22.8572C1.10145 21.4247 2.13141 18.4997 4.4763 18.4997H17.1932C17.6939 18.5014 18.1834 18.351 18.5967 18.0684C19.0101 17.7858 19.3279 17.3844 19.5081 16.9173L24.6829 2.58248H24.6854Z" stroke="currentColor" stroke-width="2" stroke-linecap="round" stroke-linejoin="round"/>
</svg>
